<svg width="467" height="250" xmlns="http://www.w3.org/2000/svg">
	<path fill="#fff" d="m232.2 239.3v-225.4h-38.07l-81.33 115.7h-70.07v-76.75h75.83v-38.99h-117.5v225.4h85.27l48.72-70.64h55.44v70.64zm-41.74-109.7h-28.93l28.33-41.43h0.609zm-105.1 38.99-42.65 60.6v-60.6z"/>
	<path fill="#fff" d="m466.7 51.66 2e-5 -37.76-160.2-5.83e-4c-34.83 0-63.54 24.88-63.54 60.9 0 18.44 7.026 34.25 18.15 44.79 9.954 9.366 19.03 14.34 38.34 21.37 27.52 9.954 31.33 22.25 31.33 35.12 0 10.54-7.32 25.76-28.1 25.76-16.68 0-28.98-11.13-28.98-28.98h-41.58c0 34.83 26.35 66.44 72.01 66.44 45.67 0 66.74-34.25 66.74-65.87 0-33.37-18.74-53.57-55.02-67.62-20.79-7.904-32.78-15.22-32.78-31.9 0-13.18 9.366-22.54 22.83-22.54l80.22 0.2858v187.6h40.09v-187.6z"/>
</svg>
