<svg width="1000" height="250" xmlns="http://www.w3.org/2000/svg">
	<title>FastGH3</title>
	<path fill="#0f9" d="m232.2 239.3v-225.4h-38.07l-81.33 115.7h-70.07v-76.75h75.83v-38.99h-117.5v225.4h85.27l48.72-70.64h55.44v70.64zm-41.74-109.7h-28.93l28.33-41.43h0.609zm-105.1 38.99-42.65 60.6v-60.6z"/>
	<path fill="#f00" d="m466.7 51.66 2e-5 -37.76-160.2-5.83e-4c-34.83 0-63.54 24.88-63.54 60.9 0 18.44 7.026 34.25 18.15 44.79 9.954 9.366 19.03 14.34 38.34 21.37 27.52 9.954 31.33 22.25 31.33 35.12 0 10.54-7.32 25.76-28.1 25.76-16.68 0-28.98-11.13-28.98-28.98h-41.58c0 34.83 26.35 66.44 72.01 66.44 45.67 0 66.74-34.25 66.74-65.87 0-33.37-18.74-53.57-55.02-67.62-20.79-7.904-32.78-15.22-32.78-31.9 0-13.18 9.366-22.54 22.83-22.54l80.22 0.2858v187.6h40.09v-187.6z"/>
	<path fill="#ff0" d="m551.1 13.91c-44.93 5.04e-4 -87.53 28.4-104.3 69.24l-0.08008-0.009766c-17.47 40.12-8.43 89.96 22.19 121.3 29.96 32.25 79.65 43.66 120.7 27.74 37.21-13.54 65.63-48.17 71.57-87.33v-38.88h-112.2v38.88h75.06c-7.584 33.92-40.97 59.43-75.69 57.9-35.67-0.1978-68.29-28.95-73.04-64.29-5.875-34.02 14.88-70.05 47.18-82.16 30.46-12.62 68.03-1.897 87.88 24.11h42.3c-17.6-39.38-59.06-66.5-101.6-66.5z"/>
	<path fill="#00f" d="m825.4 239.3v-225.4h-41.74v91.7h-80.74v-91.7h-41.74v225.4h41.74v-94.75h80.74v94.75z"/>
	<path fill="#f80" d="m825.4 13.9h62.6c56.87 0 103.4 0.06725 103.4 0.1495 0 0.08219-10.96 15.79-24.35 34.91-13.39 19.12-24.3 34.81-24.24 34.87 0.065 0.0644 1.981 0.6283 4.259 1.253 17.67 4.847 31.27 15.43 41.02 31.93 7.578 12.8 10.97 25.68 10.97 41.63 0 23.62-7.834 43.2-23.23 58.05-13.56 13.07-28.35 19.96-47.7 22.21-5.687 0.6611-18.88 0.4694-24.8-0.3604-15-2.101-28.37-7.536-39.8-16.17-3.809-2.875-10.22-8.861-13.23-12.34-4.156-4.816-7.895-11.22-10.51-18-1.532-3.972-3.605-12.09-4.308-16.87-0.2964-2.018-0.6164-4.156-0.7108-4.751l-0.1719-1.084h31.98l0.4075 1.751c2.136 9.174 6.394 17.26 12.13 23.05 7.142 7.207 16.53 11.57 28.89 13.43 4.606 0.6928 14.48 0.7788 18.68 0.1629 10.87-1.592 19.6-5.893 26.42-13 8.246-8.601 12.9-20.23 13.49-33.73 0.4369-9.904-1.343-19.04-5.164-26.49-7.253-14.15-22.32-22.52-44.19-24.57-4.912-0.4591-21.14-0.2325-25.36 0.3543-1.444 0.2007-2.693 0.2977-2.776 0.2154-0.0826-0.0824 9.992-14.8 22.39-32.71 12.39-17.91 22.54-32.63 22.54-32.72 0-0.08586-24.31-0.1561-54.04-0.1561h-54.58z"/>
</svg>
